<svg height="512" id="Capa_1" version="1.1" viewBox="0 0 350 350" width="512" x="0" xml:space="preserve" xmlns="http://www.w3.org/2000/svg" y="0">
  <g fill="#333">
    <path d="M175 171.2c39 0 70.5-38.3 70.5-85.6S235 .4 175 .3s-70.5 38-70.5 85.3 32.3 85.6 70.5 85.6z"/>
    <path d="M42 301.9c-.1-3-.1-.5 0 0z"/>
    <path d="M308.8 304.1c-.7-.8.2-5.5 0 0z"/>
    <path d="M308 298.4c-1.4-81.8-12.1-105.8-94.4-120.7 0 0-11.6 14.8-38.6 14.8s-38.6-14.8-38.6-14.8c-81.2 14.7-92.8 37.8-94.3 118a2554.3 2554.3 0 0 1-.2 14.8s19.6 39.6 133.1 39.8c113.5.2 133.8-39.8 133.8-39.8v-6.4c-.2.5-.6-.4-.9-5.7z"/>
  </g>

</svg>
